HIERARCHY
ROOT Hips
{
	OFFSET -0.001795 -0.223333 0.028219
	CHANNELS 6 Xposition Yposition Zposition Zrotation Yrotation Xrotation 
	JOINT LeftUpLeg
	{
		OFFSET 0.069520 -0.091406 -0.006815
		CHANNELS 3 Zrotation Yrotation Xrotation
		JOINT LeftLeg
		{
			OFFSET 0.034277 -0.375199 -0.004496
			CHANNELS 3 Zrotation Yrotation Xrotation
			JOINT LeftFoot
			{
				OFFSET -0.013596 -0.397961 -0.043693
				CHANNELS 3 Zrotation Yrotation Xrotation
				JOINT LeftToe
				{
					OFFSET 0.026358 -0.055791 0.119288
					CHANNELS 3 Zrotation Yrotation Xrotation
					End Site
					{
						OFFSET 0.000000 0.000000 0.000000
					}
				}
			}
		}
	}
	JOINT RightUpLeg
	{
		OFFSET -0.067670 -0.090522 -0.004320
		CHANNELS 3 Zrotation Yrotation Xrotation
		JOINT RightLeg
		{
			OFFSET -0.038290 -0.382569 -0.008850
			CHANNELS 3 Zrotation Yrotation Xrotation
			JOINT RightFoot
			{
				OFFSET 0.015774 -0.398415 -0.042312
				CHANNELS 3 Zrotation Yrotation Xrotation
				JOINT RightToe
				{
					OFFSET -0.025372 -0.048144 0.123348
					CHANNELS 3 Zrotation Yrotation Xrotation
					End Site
					{
						OFFSET 0.000000 0.000000 0.000000
					}
				}
			}
		}
	}
	JOINT Spine
	{
		OFFSET -0.002533 0.108963 -0.026696
		CHANNELS 3 Zrotation Yrotation Xrotation
		JOINT Spine1
		{
			OFFSET 0.005487 0.135180 0.001092
			CHANNELS 3 Zrotation Yrotation Xrotation
			JOINT Spine2
			{
				OFFSET 0.001457 0.052922 0.025425
				CHANNELS 3 Zrotation Yrotation Xrotation
				JOINT Neck
				{
					OFFSET -0.002778 0.213870 -0.042857
					CHANNELS 3 Zrotation Yrotation Xrotation
					JOINT Head
					{
						OFFSET 0.005152 0.064970 0.051349
						CHANNELS 3 Zrotation Yrotation Xrotation
						End Site
						{
							OFFSET 0.000000 0.000000 0.000000
						}
					}
				}
				JOINT LeftShoulder
				{
					OFFSET 0.078845 0.121749 -0.034090
					CHANNELS 3 Zrotation Yrotation Xrotation
					JOINT LeftArm
					{
						OFFSET 0.090977 0.030469 -0.008868
						CHANNELS 3 Zrotation Yrotation Xrotation
						JOINT LeftForeArm
						{
							OFFSET 0.259612 -0.012772 -0.027456
							CHANNELS 3 Zrotation Yrotation Xrotation
							JOINT LeftHand
							{
								OFFSET 0.249234 0.008986 -0.001171
								CHANNELS 3 Zrotation Yrotation Xrotation
								End Site
								{
									OFFSET 0.000000 0.000000 0.000000
								}
							}
						}
					}
				}
				JOINT RightShoulder
				{
					OFFSET -0.081759 0.118833 -0.038615
					CHANNELS 3 Zrotation Yrotation Xrotation
					JOINT RightArm
					{
						OFFSET -0.096012 0.032551 -0.009143
						CHANNELS 3 Zrotation Yrotation Xrotation
						JOINT RightForeArm
						{
							OFFSET -0.253742 -0.013329 -0.021401
							CHANNELS 3 Zrotation Yrotation Xrotation
							JOINT RightHand
							{
								OFFSET -0.255298 0.007772 -0.005559
								CHANNELS 3 Zrotation Yrotation Xrotation
								End Site
								{
									OFFSET 0.000000 0.000000 0.000000
								}
							}
						}
					}
				}
			}
		}
	}
}
MOTION
Frames: 5
Frame Time: 0.050000
0.534249 0.906504 -4.192609 -0.624882 -21.319558 -7.839311 10.571399 0.751746 -2.956243 -8.623496 6.009512 33.134587 1.754465 1.855355 -9.738121 0.000000 0.000000 0.000000 -7.585514 1.325993 -16.122302 7.422439 0.046339 19.472761 -8.325589 -22.917916 22.258493 0.000000 0.000000 0.000000 5.392476 -0.634721 34.045561 -11.021928 3.380453 -18.302043 -4.818117 7.738535 21.210777 14.180504 -7.567589 -23.380788 0.000000 0.000000 0.000000 -18.641204 -29.772979 15.249071 -31.817613 -39.741338 4.742597 18.463106 -51.615249 -6.550752 0.000000 0.000000 0.000000 31.923439 18.235624 8.850208 41.724014 44.507212 10.177286 -8.863987 41.069445 -1.735061 0.000000 0.000000 0.000000 
0.546191 0.890881 -4.231793 -1.548070 -20.078592 -9.404857 9.919128 0.671325 -2.268592 -5.667448 4.312727 33.435386 2.101078 -0.009638 -18.900049 0.000000 0.000000 0.000000 -6.517312 1.510150 -17.746394 7.432882 0.082044 21.395024 -9.965271 -24.886490 22.006132 0.000000 0.000000 0.000000 4.768246 -0.543542 35.525095 -9.107012 2.826003 -17.461820 -5.734318 8.183447 21.054744 16.114167 -8.478262 -23.926503 0.000000 0.000000 0.000000 -16.753143 -31.630444 15.271201 -28.169373 -40.353761 4.098055 27.240185 -56.513023 -12.329931 0.000000 0.000000 0.000000 32.026981 18.163787 9.397090 37.700156 46.173986 9.280633 -13.596496 45.252773 -3.795996 0.000000 0.000000 0.000000 
0.560606 0.879937 -4.281153 -1.992042 -18.420156 -11.376695 9.979938 0.667516 -4.492947 -4.892848 3.814526 34.926718 2.431895 -0.433705 -20.933340 0.000000 0.000000 0.000000 -6.781800 1.541534 -19.077739 8.331582 -0.271137 21.097423 -11.910150 -27.026137 27.236708 0.000000 0.000000 0.000000 2.626670 0.105870 39.731452 -8.231850 2.606897 -17.286550 -4.662702 7.626824 20.977316 17.324578 -8.756758 -25.457801 0.000000 0.000000 0.000000 -16.752956 -33.092775 15.721369 -23.204915 -41.271516 3.148359 38.903165 -58.594024 -20.037255 0.000000 0.000000 0.000000 30.238746 17.327287 8.911912 37.151916 47.292973 9.446538 -21.574811 49.645782 -7.811611 0.000000 0.000000 0.000000 
0.573696 0.875335 -4.331645 -2.244098 -19.322012 -12.013935 10.770623 0.903161 -8.700320 -5.045745 4.453001 37.596633 2.250160 -0.284150 -19.026355 0.000000 0.000000 0.000000 -7.942615 1.613647 -20.777077 11.640437 -0.984889 19.426764 -8.708480 -23.337066 24.979510 0.000000 0.000000 0.000000 0.864497 1.055971 42.242985 -7.323585 2.224750 -18.203481 -3.871347 7.787968 22.441080 16.531050 -8.032081 -26.867038 0.000000 0.000000 0.000000 -17.781222 -33.590844 16.311928 -20.140805 -40.277909 2.167441 50.051335 -59.075228 -27.168664 0.000000 0.000000 0.000000 27.606923 17.242480 8.556011 39.800732 47.830742 10.522600 -29.478940 54.785487 -12.745480 0.000000 0.000000 0.000000 
0.582589 0.878095 -4.374901 -2.522048 -19.962355 -11.309023 11.353795 1.155830 -11.906280 -5.147148 4.446609 36.707277 1.933155 0.145995 -15.740153 0.000000 0.000000 0.000000 -8.482189 1.728713 -22.097604 14.672007 -1.561087 24.452445 -6.024283 -18.062252 12.810343 0.000000 0.000000 0.000000 0.078588 1.402837 42.009448 -6.650204 2.015050 -16.760223 -4.005862 7.066079 22.107676 15.894454 -7.454125 -27.963468 0.000000 0.000000 0.000000 -17.546366 -32.721118 16.058478 -19.982976 -38.058563 1.797651 58.688597 -59.088733 -32.507415 0.000000 0.000000 0.000000 28.221111 17.312978 8.303245 42.449825 46.542965 11.102081 -33.433727 61.628552 -17.193244 0.000000 0.000000 0.000000 
